<svg xmlns="http://www.w3.org/2000/svg" width="83" height="91" viewBox="0 0 83 91" fill="none"><path d="M20.5 40.75V25C20.5 19.4305 22.7125 14.089 26.6508 10.1508C30.589 6.21249 35.9305 4 41.5 4C47.0695 4 52.411 6.21249 56.3492 10.1508C60.2875 14.089 62.5 19.4305 62.5 25V40.75" stroke="#AAE4A6" style="stroke:#AAE4A6;stroke:color(display-p3 0.6667 0.8941 0.6510);stroke-opacity:1;" stroke-width="8" stroke-linecap="round" stroke-linejoin="round"></path><rect x="4" y="41" width="75" height="46" rx="10" stroke="#AAE4A6" style="stroke:#AAE4A6;stroke:color(display-p3 0.6667 0.8941 0.6510);stroke-opacity:1;" stroke-width="8"></rect><path d="M16.7937 56.0333C17.5147 56.027 18.2094 56.3042 18.728 56.8052L22.2838 60.3609L25.8395 56.8052C26.3582 56.3042 27.0529 56.027 27.7739 56.0333C28.4949 56.0396 29.1847 56.3288 29.6945 56.8387C30.2044 57.3485 30.4936 58.0383 30.4999 58.7593C30.5062 59.4804 30.229 60.175 29.728 60.6937L26.1723 64.2494L29.728 67.8052C30.229 68.3238 30.5062 69.0185 30.4999 69.7395C30.4936 70.4606 30.2044 71.1503 29.6945 71.6602C29.1847 72.17 28.4949 72.4593 27.7739 72.4655C27.0529 72.4718 26.3582 72.1946 25.8395 71.6937L22.2838 68.1379L18.728 71.6937C18.4744 71.9563 18.1709 72.1658 17.8354 72.3099C17.4999 72.4541 17.139 72.5299 16.7739 72.5331C16.4088 72.5363 16.0466 72.4667 15.7087 72.3284C15.3707 72.1901 15.0637 71.986 14.8055 71.7277C14.5473 71.4695 14.3431 71.1625 14.2048 70.8245C14.0665 70.4866 13.9969 70.1245 14.0001 69.7593C14.0033 69.3942 14.0791 69.0333 14.2233 68.6978C14.3674 68.3623 14.5769 68.0588 14.8395 67.8052L18.3953 64.2494L14.8395 60.6937C14.3386 60.175 14.0614 59.4804 14.0677 58.7593C14.074 58.0383 14.3632 57.3485 14.873 56.8387C15.3829 56.3288 16.0726 56.0396 16.7937 56.0333Z" fill="#AAE4A6" style="fill:#AAE4A6;fill:color(display-p3 0.6667 0.8941 0.6510);fill-opacity:1;"></path><path d="M37.4088 56C36.6796 56 35.9802 56.2896 35.4645 56.8052C34.949 57.3209 34.6594 58.0202 34.6594 58.7494C34.6594 59.4786 34.949 60.178 35.4645 60.6937L39.0203 64.2494L35.4645 67.8052C34.9636 68.3238 34.6864 69.0185 34.6927 69.7395C34.699 70.4606 34.9882 71.1503 35.498 71.6602C36.0079 72.17 36.6977 72.4593 37.4187 72.4655C38.1397 72.4718 38.8344 72.1946 39.353 71.6937L42.9088 68.1379L46.4645 71.6937C46.9832 72.1946 47.6778 72.4718 48.3989 72.4655C49.1199 72.4593 49.8097 72.17 50.3195 71.6602C50.8294 71.1503 51.1186 70.4606 51.1249 69.7395C51.1312 69.0185 50.854 68.3238 50.353 67.8052L46.7973 64.2494L50.353 60.6937C50.854 60.175 51.1312 59.4804 51.1249 58.7593C51.1186 58.0383 50.8294 57.3485 50.3195 56.8387C49.8097 56.3288 49.1199 56.0396 48.3989 56.0333C47.6778 56.027 46.9832 56.3042 46.4645 56.8052L42.9088 60.3609L39.353 56.8052C38.8373 56.2896 38.138 56 37.4088 56Z" fill="#AAE4A6" style="fill:#AAE4A6;fill:color(display-p3 0.6667 0.8941 0.6510);fill-opacity:1;"></path><path d="M56.0892 67.8049C56.605 67.2891 57.3044 66.9994 58.0338 66.9994H66.2838C67.0131 66.9994 67.7126 67.2891 68.2283 67.8049C68.7441 68.3206 69.0338 69.0201 69.0338 69.7494C69.0338 70.4788 68.7441 71.1782 68.2283 71.694C67.7126 72.2097 67.0131 72.4994 66.2838 72.4994H58.0338C57.3044 72.4994 56.605 72.2097 56.0892 71.694C55.5735 71.1782 55.2838 70.4788 55.2838 69.7494C55.2838 69.0201 55.5735 68.3206 56.0892 67.8049Z" fill="#AAE4A6" style="fill:#AAE4A6;fill:color(display-p3 0.6667 0.8941 0.6510);fill-opacity:1;"></path><style>@media (prefers-color-scheme: light) { :root { filter: contrast(1) brightness(0.7); } }
@media (prefers-color-scheme: dark) { :root { filter: contrast(1) brightness(1); } }
</style></svg>